#!Matlab matrix to amc conversion
:FULLY-SPECIFIED
:DEGREES
1
root 9.287220 16.950000 -34.276200 0.000000 0.000000 0.000000
lowerback 0.000000 0.000000 0.000000
upperback 0.000000 0.000000 0.000000
thorax 0.000000 0.000000 0.000000
lowerneck -16.000000 0.000000 0.000000
upperneck 21.000000 0.000000 0.000000
head 11.000000 0.000000 0.000000
rclavicle 0.000000 0.000000
rhumerus 0.000000 0.000000 0.000000
rradius 0.000000
rwrist 0.000000
rhand 0.000000 0.000000
rfingers 0.000000
rthumb 0.000000 0.000000
lclavicle 0.000000 0.000000
lhumerus 0.000000 0.000000 0.000000
lradius 0.000000
lwrist 0.000000
lhand 0.000000 0.000000
lfingers 0.000000
lthumb 0.000000 0.000000
rfemur 0.000000 0.000000 21.000000
rtibia 0.000000
rfoot 0.000000 0.000000
rtoes 0.000000
lfemur 0.000000 0.000000 -21.000000
ltibia 0.000000
lfoot 0.000000 0.000000
ltoes 0.000000
2
root 9.287220 16.950000 -34.276200 1.779197 1.634016 0.091917
lowerback 14.700038 -0.075570 4.334698
upperback 0.680373 0.973269 3.498001
thorax -7.459851 0.379971 1.199924
lowerneck -12.139698 -0.091623 -1.627080
upperneck 30.275703 0.871838 -1.975350
head 12.183914 -0.027738 -0.378927
rclavicle -0.000000 0.000000
rhumerus -30.561332 -7.318169 -76.292469
rradius 35.705550
rwrist -4.334603
rhand -13.821765 9.893989
rfingers 7.125020
rthumb 12.306957 -19.656695
lclavicle -0.000000 0.000000
lhumerus -42.158440 6.139971 84.373405
lradius 39.804495
lwrist 5.993910
lhand -11.481961 46.350307
lfingers 7.125020
lthumb 14.538648 75.749153
rfemur -3.617892 5.996552 33.322661
rtibia 29.451903
rfoot -15.674259 -12.092612
rtoes 11.910865
lfemur -22.131891 1.046414 -13.798234
ltibia 51.865287
lfoot -9.438846 7.314836
ltoes -15.606960
3
root 9.273270 17.016600 -33.905900 1.828269 1.634016 0.079926
lowerback 14.563671 0.007756 4.974029
upperback 0.742291 1.193731 3.493228
thorax -7.356594 0.466812 0.787836
lowerneck -12.215396 -0.180626 -1.694047
upperneck 30.151477 0.708902 -1.799851
head 12.153916 -0.086750 -0.325743
rclavicle -0.000000 0.000000
rhumerus -29.420659 -6.160397 -76.491692
rradius 37.053964
rwrist -5.108686
rhand -13.938432 9.646646
rfingers 7.125020
rthumb 12.191553 -19.912510
lclavicle -0.000000 0.000000
lhumerus -42.237102 6.171356 84.147970
lradius 39.528011
lwrist 5.313559
lhand -11.057273 46.562282
lfingers 7.125020
lthumb 14.950393 75.911184
rfemur -1.153358 6.124511 34.076008
rtibia 28.330945
rfoot -16.646987 -12.500477
rtoes 10.922549
lfemur -24.424647 0.586740 -13.407879
ltibia 46.092254
lfoot -11.393339 8.898792
ltoes -16.247968
4
root 9.268420 17.025800 -33.555600 1.863895 1.634016 0.068855
lowerback 14.427947 0.101197 5.605784
upperback 0.805360 1.435246 3.490707
thorax -7.251164 0.563601 0.379978
lowerneck -12.307754 -0.268700 -1.758088
upperneck 30.030458 0.550332 -1.652537
head 12.126949 -0.145105 -0.283283
rclavicle -0.000000 0.000000
rhumerus -28.216388 -4.932226 -76.682790
rradius 38.435972
rwrist -5.901920
rhand -14.059930 9.464674
rfingers 7.125020
rthumb 12.071571 -20.105444
lclavicle -0.000000 0.000000
lhumerus -42.333469 6.207894 83.911442
lradius 39.309398
lwrist 4.651129
lhand -10.640887 46.778712
lfingers 7.125020
lthumb 15.353952 76.077873
rfemur 1.373928 6.241969 34.823726
rtibia 27.164195
rfoot -17.573168 -12.885229
rtoes 9.943074
lfemur -26.702234 -0.057599 -12.974384
ltibia 38.488647
lfoot -13.426827 10.768142
ltoes -16.728950
5
root 9.249270 17.016300 -33.220600 1.979967 1.634016 0.097719
lowerback 14.217552 0.333661 5.849249
upperback 0.611946 1.782818 3.509407
thorax -7.320929 0.720367 0.254778
lowerneck -12.075906 -0.325335 -1.940201
upperneck 30.037833 0.481166 -1.582578
head 12.069928 -0.188849 -0.229901
rclavicle -0.000000 0.000000
rhumerus -28.216298 -4.951169 -76.518286
rradius 38.033983
rwrist -5.358533
rhand -13.994403 9.629653
rfingers 7.125020
rthumb 12.134392 -19.943612
lclavicle -0.000000 0.000000
lhumerus -42.706470 6.514530 83.739245
lradius 38.904407
lwrist 4.663033
lhand -10.947531 46.703818
lfingers 7.125020
lthumb 15.056162 76.030722
rfemur 4.303412 6.565008 34.908572
rtibia 24.157753
rfoot -17.017957 -12.487571
rtoes 7.496507
lfemur -26.646135 -3.976460 -11.928366
ltibia 30.429550
lfoot -13.418814 12.150601
ltoes -16.639610
6
root 9.246830 17.017700 -32.897400 2.056849 1.634016 0.108093
lowerback 14.004381 0.535104 5.973086
upperback 0.432924 2.044395 3.518683
thorax -7.377482 0.840987 0.147178
lowerneck -11.867258 -0.378202 -2.105859
upperneck 30.042449 0.417801 -1.520717
head 12.014139 -0.229410 -0.184262
rclavicle -0.000000 0.000000
rhumerus -28.237100 -4.996405 -76.368607
rradius 37.627405
rwrist -4.838691
rhand -13.931245 9.788526
rfingers 7.125020
rthumb 12.194938 -19.787624
lclavicle -0.000000 0.000000
lhumerus -43.066553 6.838252 83.545096
lradius 38.479795
lwrist 4.640286
lhand -11.241240 46.617721
lfingers 7.125020
lthumb 14.770653 75.971186
rfemur 6.757525 6.866310 34.934837
rtibia 22.517847
rfoot -16.617376 -12.100690
rtoes 5.445578
lfemur -26.579556 -6.182566 -11.297403
ltibia 26.468511
lfoot -13.300276 12.763729
ltoes -16.552181
7
root 9.219480 17.016100 -32.563300 2.115310 1.634016 0.108501
lowerback 13.784963 0.721069 6.032553
upperback 0.262106 2.261678 3.519018
thorax -7.422297 0.943091 0.048027
lowerneck -11.674232 -0.428373 -2.260895
upperneck 30.044357 0.358499 -1.462882
head 11.958922 -0.267738 -0.143427
rclavicle -0.000000 0.000000
rhumerus -28.279261 -5.068823 -76.228630
rradius 37.195012
rwrist -4.327003
rhand -13.869550 9.947431
rfingers 7.125020
rthumb 12.254078 -19.630832
lclavicle -0.000000 0.000000
lhumerus -43.425987 7.184057 83.326397
lradius 38.021901
lwrist 4.581635
lhand -11.527274 46.519225
lfingers 7.125020
lthumb 14.492317 75.898453
rfemur 8.935441 7.154910 34.905770
rtibia 21.618821
rfoot -16.271597 -11.716252
rtoes 3.591196
lfemur -26.496821 -7.425179 -10.962216
ltibia 24.454442
lfoot -13.043305 12.952575
ltoes -16.431440
8
root 9.210440 16.998300 -32.235300 2.171142 1.634016 0.099279
lowerback 13.555722 0.905907 6.054186
upperback 0.093593 2.469303 3.510431
thorax -7.456542 1.041601 -0.051106
lowerneck -11.489818 -0.476862 -2.410766
upperneck 30.043577 0.301631 -1.405270
head 11.903629 -0.304727 -0.104770
rclavicle -0.000000 0.000000
rhumerus -28.343733 -5.169849 -76.093568
rradius 36.714229
rwrist -3.808318
rhand -13.808437 10.112506
rfingers 7.125020
rthumb 12.312658 -19.466553
lclavicle -0.000000 0.000000
lhumerus -43.797016 7.557282 83.080221
lradius 37.515992
lwrist 4.483842
lhand -11.810756 46.406964
lfingers 7.125020
lthumb 14.216176 75.811525
rfemur 11.013917 7.439462 34.817777
rtibia 21.117678
rfoot -15.894450 -11.325971
rtoes 1.753350
lfemur -26.390876 -8.126328 -10.859440
ltibia 23.293581
lfoot -12.587400 12.823415
ltoes -16.228741
9
root 9.216220 16.950400 -31.922700 2.239425 1.634016 0.072849
lowerback 13.312922 1.103879 6.047637
upperback -0.078439 2.700369 3.492474
thorax -7.481108 1.150912 -0.158652
lowerneck -11.307317 -0.524652 -2.560748
upperneck 30.040102 0.245637 -1.344090
head 11.847607 -0.341243 -0.065801
rclavicle -0.000000 0.000000
rhumerus -28.431972 -5.301471 -75.958798
rradius 36.159953
rwrist -3.267281
rhand -13.747027 10.290130
rfingers 7.125020
rthumb 12.371520 -19.287786
lclavicle -0.000000 0.000000
lhumerus -44.192280 7.963687 82.803274
lradius 36.945788
lwrist 4.341513
lhand -12.096763 46.279376
lfingers 7.125020
lthumb 13.937290 75.709216
rfemur 13.161639 7.728500 34.659974
rtibia 20.823223
rfoot -15.391948 -10.921440
rtoes -0.246367
lfemur -26.252690 -8.524147 -10.969644
ltibia 22.355511
lfoot -11.825227 12.303564
ltoes -15.862418
